<svg
    fill="none"
    viewBox="0 0 18 18"
    xmlns="http://www.w3.org/2000/svg"
>
    <path
    d="M10.3501 3.60001C10.3501 3.24196 10.2079 2.89859 9.95469 2.64541C9.70151 2.39224 9.35813 2.25001 9.00009 2.25001C8.64205 2.25001 8.29867 2.39224 8.0455 2.64541C7.79232 2.89859 7.65009 3.24196 7.65009 3.60001H6.75009C6.75009 3.00327 6.98714 2.43097 7.4091 2.00902C7.83106 1.58706 8.40335 1.35001 9.00009 1.35001C9.59683 1.35001 10.1691 1.58706 10.5911 2.00902C11.013 2.43097 11.2501 3.00327 11.2501 3.60001H15.3001C15.4194 3.60001 15.5339 3.64742 15.6183 3.73181C15.7027 3.8162 15.7501 3.93066 15.7501 4.05001C15.7501 4.16935 15.7027 4.28381 15.6183 4.3682C15.5339 4.4526 15.4194 4.50001 15.3001 4.50001H14.8015L13.6351 14.607C13.5843 15.0457 13.3741 15.4503 13.0443 15.7441C12.7146 16.0378 12.2884 16.2001 11.8468 16.2H6.15339C5.7118 16.2001 5.2856 16.0378 4.95587 15.7441C4.62613 15.4503 4.41587 15.0457 4.36509 14.607L3.19779 4.50001H2.70009C2.59477 4.50004 2.49277 4.46313 2.41186 4.39571C2.33095 4.32828 2.27625 4.23461 2.25729 4.13101L2.25009 4.05001C2.25009 3.93066 2.2975 3.8162 2.38189 3.73181C2.46628 3.64742 2.58074 3.60001 2.70009 3.60001H10.3501ZM13.8943 4.50001H4.10499L5.25879 14.5035C5.28419 14.7229 5.38939 14.9253 5.55435 15.0722C5.71931 15.2191 5.93252 15.3001 6.15339 15.3H11.8468C12.0675 15.2999 12.2805 15.2187 12.4453 15.0719C12.61 14.925 12.7151 14.7228 12.7405 14.5035L13.8943 4.50001ZM7.65009 6.75001C7.87059 6.75001 8.05509 6.88951 8.09289 7.07311L8.10009 7.14421V12.6567C8.10009 12.8736 7.89849 13.05 7.65009 13.05C7.42959 13.05 7.24509 12.9105 7.20729 12.7269L7.20009 12.6558V7.14511C7.20009 6.92731 7.40169 6.75091 7.65009 6.75091V6.75001ZM10.3501 6.75001C10.5706 6.75001 10.7551 6.88951 10.7929 7.07311L10.8001 7.14421V12.6567C10.8001 12.8736 10.5985 13.05 10.3501 13.05C10.1296 13.05 9.94509 12.9105 9.90729 12.7269L9.90009 12.6558V7.14511C9.90009 6.92731 10.1017 6.75091 10.3501 6.75091V6.75001Z"
    fill="#F25F4C"
    />
</svg>