<svg
    viewBox="0 0 18 18"
    fill="none"
    xmlns="http://www.w3.org/2000/svg"
>
    <path
    d="M16.9349 4.15999L13.9999 1.20999C13.806 1.01702 13.5435 0.908691 13.2699 0.908691C12.9963 0.908691 12.7339 1.01702 12.5399 1.20999L2.13494 11.6L1.18494 15.7C1.15217 15.8499 1.15329 16.0052 1.18822 16.1546C1.22316 16.3039 1.29103 16.4436 1.38687 16.5634C1.48271 16.6832 1.6041 16.7801 1.74218 16.847C1.88025 16.9139 2.03152 16.9491 2.18494 16.95C2.25642 16.9572 2.32845 16.9572 2.39994 16.95L6.54494 16L16.9349 5.61999C17.1279 5.42604 17.2362 5.16358 17.2362 4.88999C17.2362 4.61639 17.1279 4.35393 16.9349 4.15999ZM6.04494 15.1L2.15994 15.915L3.04494 12.105L10.8299 4.34999L13.8299 7.34999L6.04494 15.1ZM14.4999 6.62499L11.4999 3.62499L13.2399 1.89499L16.1899 4.89499L14.4999 6.62499Z"
    fill="#2A46A9"
    />
</svg>